<?xml version="1.0" encoding="UTF-8"?>
<svg width="420" height="280" viewBox="0 0 420 280" xmlns="http://www.w3.org/2000/svg" aria-label="Auth Decorative Illustration">
  <defs>
    <linearGradient id="bg" x1="0%" y1="0%" x2="100%" y2="100%">
      <stop offset="0%" stop-color="#ecf5ff"/>
      <stop offset="100%" stop-color="#f5f7fa"/>
    </linearGradient>
    <linearGradient id="accent" x1="0%" y1="0%" x2="100%" y2="0%">
      <stop offset="0%" stop-color="#66b1ff"/>
      <stop offset="100%" stop-color="#409EFF"/>
    </linearGradient>
  </defs>
  <rect x="0" y="0" width="420" height="280" rx="16" fill="url(#bg)"/>
  <g opacity="0.9">
    <circle cx="70" cy="60" r="22" fill="url(#accent)"/>
    <circle cx="110" cy="110" r="12" fill="#c0d8ff"/>
    <circle cx="180" cy="70" r="18" fill="#a8c6ff"/>
    <rect x="220" y="40" width="160" height="90" rx="10" fill="#fff" stroke="#e4e7ed"/>
    <rect x="220" y="140" width="160" height="90" rx="10" fill="#fff" stroke="#e4e7ed"/>
    <rect x="235" y="55" width="130" height="16" rx="8" fill="#f2f6fc"/>
    <rect x="235" y="80" width="90" height="16" rx="8" fill="#ecf5ff"/>
    <rect x="235" y="180" width="110" height="16" rx="8" fill="#f2f6fc"/>
  </g>
  <g>
    <path d="M60 220 c40 -30, 90 -30, 130 0" stroke="#dcdfe6" stroke-width="6" fill="none" stroke-linecap="round"/>
    <path d="M60 230 c40 -30, 90 -30, 130 0" stroke="#e4e7ed" stroke-width="6" fill="none" stroke-linecap="round"/>
  </g>
</svg>